<svg width="170" height="29" viewBox="0 0 170 29" fill="none" xmlns="http://www.w3.org/2000/svg">
<path d="M8.93202 22.736C8.26002 22.736 7.61602 22.6426 7.00002 22.456C6.38402 22.2693 5.82402 22.0173 5.32002 21.7C4.83469 21.3826 4.42402 21.0186 4.08802 20.608C3.77069 20.1786 3.55602 19.74 3.44402 19.292L4.42402 18.956L4.17202 22.4H2.39909e-05V1.70798H4.50802V11.116L3.58402 10.78C3.69602 10.2946 3.91069 9.84664 4.22802 9.43598C4.54536 9.00664 4.94669 8.63331 5.43202 8.31598C5.91736 7.97998 6.44936 7.71864 7.02802 7.53198C7.60669 7.34531 8.20402 7.25198 8.82002 7.25198C10.108 7.25198 11.2467 7.58798 12.236 8.25998C13.244 8.91331 14.0374 9.82798 14.616 11.004C15.1947 12.1613 15.484 13.4866 15.484 14.98C15.484 16.492 15.1947 17.836 14.616 19.012C14.056 20.1693 13.2814 21.084 12.292 21.756C11.3027 22.4093 10.1827 22.736 8.93202 22.736ZM7.75602 18.956C8.42802 18.956 9.01602 18.788 9.52002 18.452C10.024 18.116 10.4067 17.6586 10.668 17.08C10.948 16.4826 11.088 15.7826 11.088 14.98C11.088 14.196 10.948 13.5053 10.668 12.908C10.4067 12.3106 10.024 11.8533 9.52002 11.536C9.01602 11.2186 8.42802 11.06 7.75602 11.06C7.06536 11.06 6.46802 11.2186 5.96402 11.536C5.46002 11.8533 5.06802 12.3106 4.78802 12.908C4.50802 13.5053 4.36802 14.196 4.36802 14.98C4.36802 15.7826 4.50802 16.4826 4.78802 17.08C5.06802 17.6586 5.46002 18.116 5.96402 18.452C6.46802 18.788 7.06536 18.956 7.75602 18.956ZM18.6817 22.428V7.55998H23.1617V22.428H18.6817ZM20.9217 4.61998C20.0817 4.61998 19.419 4.42398 18.9337 4.03198C18.467 3.62131 18.2337 3.04264 18.2337 2.29598C18.2337 1.62398 18.4764 1.07331 18.9617 0.643977C19.447 0.214644 20.1004 -2.31266e-05 20.9217 -2.31266e-05C21.7617 -2.31266e-05 22.415 0.20531 22.8817 0.615977C23.3484 1.00798 23.5817 1.56798 23.5817 2.29598C23.5817 2.98664 23.339 3.54664 22.8537 3.97598C22.387 4.40531 21.743 4.61998 20.9217 4.61998ZM34.1751 28.868C32.9618 28.868 31.7485 28.6906 30.5351 28.336C29.3405 27.9813 28.3698 27.524 27.6231 26.964L29.1911 23.828C29.5831 24.0893 30.0125 24.3133 30.4791 24.5C30.9645 24.7053 31.4685 24.864 31.9911 24.976C32.5138 25.088 33.0458 25.144 33.5871 25.144C34.5391 25.144 35.3138 25.004 35.9111 24.724C36.5085 24.444 36.9565 24.0146 37.2551 23.436C37.5538 22.876 37.7031 22.1666 37.7031 21.308V18.816L38.5711 18.956C38.4405 19.572 38.1138 20.132 37.5911 20.636C37.0871 21.14 36.4618 21.5506 35.7151 21.868C34.9685 22.1666 34.1751 22.316 33.3351 22.316C31.9911 22.316 30.7871 22.008 29.7231 21.392C28.6778 20.7573 27.8471 19.8893 27.2311 18.788C26.6338 17.668 26.3351 16.38 26.3351 14.924C26.3351 13.4306 26.6338 12.1146 27.2311 10.976C27.8285 9.81864 28.6498 8.91331 29.6951 8.25998C30.7405 7.58798 31.9165 7.25198 33.2231 7.25198C33.7831 7.25198 34.3151 7.31731 34.8191 7.44798C35.3418 7.57864 35.8178 7.75598 36.2471 7.97998C36.6951 8.18531 37.0871 8.43731 37.4231 8.73598C37.7778 9.01598 38.0578 9.32398 38.2631 9.65998C38.4871 9.99598 38.6365 10.3413 38.7111 10.696L37.7871 10.92L37.9551 7.55998H42.2111V21.224C42.2111 22.4373 42.0245 23.5106 41.6511 24.444C41.2965 25.396 40.7645 26.1986 40.0551 26.852C39.3645 27.524 38.5245 28.028 37.5351 28.364C36.5458 28.7 35.4258 28.868 34.1751 28.868ZM34.2871 18.844C35.0151 18.844 35.6405 18.6853 36.1631 18.368C36.7045 18.032 37.1151 17.5746 37.3951 16.996C37.6938 16.4173 37.8431 15.736 37.8431 14.952C37.8431 14.168 37.6938 13.4866 37.3951 12.908C37.1151 12.3106 36.7045 11.8533 36.1631 11.536C35.6405 11.2 35.0151 11.032 34.2871 11.032C33.5778 11.032 32.9618 11.2 32.4391 11.536C31.9165 11.8533 31.5058 12.3106 31.2071 12.908C30.9271 13.4866 30.7871 14.168 30.7871 14.952C30.7871 15.736 30.9271 16.4173 31.2071 16.996C31.5058 17.5746 31.9165 18.032 32.4391 18.368C32.9618 18.6853 33.5778 18.844 34.2871 18.844ZM53.1016 22.708C51.5523 22.708 50.1709 22.372 48.9576 21.7C47.7629 21.028 46.8109 20.1133 46.1016 18.956C45.4109 17.7986 45.0656 16.4733 45.0656 14.98C45.0656 13.4866 45.4109 12.1613 46.1016 11.004C46.8109 9.84664 47.7629 8.93198 48.9576 8.25998C50.1709 7.58798 51.5523 7.25198 53.1016 7.25198C54.6509 7.25198 56.0229 7.58798 57.2176 8.25998C58.4309 8.93198 59.3829 9.84664 60.0736 11.004C60.7643 12.1613 61.1096 13.4866 61.1096 14.98C61.1096 16.4733 60.7643 17.7986 60.0736 18.956C59.3829 20.1133 58.4309 21.028 57.2176 21.7C56.0229 22.372 54.6509 22.708 53.1016 22.708ZM53.1016 18.844C53.7736 18.844 54.3709 18.676 54.8936 18.34C55.4163 18.004 55.8269 17.5466 56.1256 16.968C56.4243 16.3893 56.5643 15.7266 56.5456 14.98C56.5643 14.2333 56.4243 13.5706 56.1256 12.992C55.8269 12.3946 55.4163 11.928 54.8936 11.592C54.3709 11.256 53.7736 11.088 53.1016 11.088C52.4296 11.088 51.8229 11.256 51.2816 11.592C50.7589 11.928 50.3483 12.3946 50.0496 12.992C49.7509 13.5706 49.6109 14.2333 49.6296 14.98C49.6109 15.7266 49.7509 16.3893 50.0496 16.968C50.3483 17.5466 50.7589 18.004 51.2816 18.34C51.8229 18.676 52.4296 18.844 53.1016 18.844ZM69.6671 22.736C68.3791 22.736 67.2311 22.4093 66.2231 21.756C65.2338 21.084 64.4498 20.1693 63.8711 19.012C63.2924 17.836 63.0031 16.5013 63.0031 15.008C63.0031 13.5146 63.2924 12.1893 63.8711 11.032C64.4498 9.85598 65.2431 8.93198 66.2511 8.25998C67.2591 7.58798 68.4164 7.25198 69.7231 7.25198C70.3951 7.25198 71.0391 7.35464 71.6551 7.55998C72.2711 7.76531 72.8311 8.04531 73.3351 8.39998C73.8391 8.75464 74.2498 9.16531 74.5671 9.63198C74.8844 10.08 75.0711 10.5466 75.1271 11.032L74.0631 11.284V1.70798H78.5711V22.428H74.3991L74.1471 19.04L75.0431 19.18C74.9871 19.6466 74.8004 20.0946 74.4831 20.524C74.1844 20.9533 73.7924 21.336 73.3071 21.672C72.8218 21.9893 72.2618 22.2413 71.6271 22.428C71.0111 22.6333 70.3578 22.736 69.6671 22.736ZM70.8151 19.012C71.5058 19.012 72.1031 18.844 72.6071 18.508C73.1111 18.172 73.4938 17.7053 73.7551 17.108C74.0351 16.5106 74.1751 15.8106 74.1751 15.008C74.1751 14.1866 74.0351 13.4773 73.7551 12.88C73.4938 12.2826 73.1111 11.816 72.6071 11.48C72.1031 11.144 71.5058 10.976 70.8151 10.976C70.1244 10.976 69.5271 11.144 69.0231 11.48C68.5378 11.816 68.1551 12.2826 67.8751 12.88C67.5951 13.4773 67.4551 14.1866 67.4551 15.008C67.4551 15.8106 67.5951 16.5106 67.8751 17.108C68.1551 17.7053 68.5378 18.172 69.0231 18.508C69.5271 18.844 70.1244 19.012 70.8151 19.012ZM89.4434 22.708C87.8007 22.708 86.3727 22.3813 85.1594 21.728C83.9461 21.056 83.0034 20.1506 82.3314 19.012C81.6594 17.8546 81.3234 16.5386 81.3234 15.064C81.3234 13.9253 81.5101 12.88 81.8834 11.928C82.2567 10.976 82.7794 10.1546 83.4514 9.46398C84.1234 8.75464 84.9167 8.21331 85.8314 7.83998C86.7647 7.44798 87.7821 7.25198 88.8834 7.25198C89.9287 7.25198 90.8807 7.43864 91.7394 7.81198C92.6167 8.18531 93.3727 8.70798 94.0074 9.37998C94.6421 10.052 95.1274 10.8453 95.4634 11.76C95.7994 12.6746 95.9487 13.6733 95.9114 14.756L95.8834 15.96H84.0394L83.3954 13.44H92.2434L91.7674 13.972V13.412C91.7301 12.9453 91.5807 12.5346 91.3194 12.18C91.0767 11.8066 90.7501 11.5173 90.3394 11.312C89.9287 11.1066 89.4621 11.004 88.9394 11.004C88.2114 11.004 87.5861 11.1533 87.0634 11.452C86.5594 11.732 86.1767 12.152 85.9154 12.712C85.6541 13.2533 85.5234 13.9253 85.5234 14.728C85.5234 15.5493 85.6914 16.268 86.0274 16.884C86.3821 17.4813 86.8861 17.948 87.5394 18.284C88.2114 18.62 89.0047 18.788 89.9194 18.788C90.5541 18.788 91.1141 18.6946 91.5994 18.508C92.1034 18.3213 92.6447 18.004 93.2234 17.556L95.3234 20.524C94.7447 21.028 94.1287 21.4386 93.4754 21.756C92.8221 22.0733 92.1501 22.3066 91.4594 22.456C90.7874 22.624 90.1154 22.708 89.4434 22.708Z" fill="#3B44F6"/>
<path d="M105.626 22.708C104.487 22.708 103.442 22.568 102.49 22.288C101.538 21.9893 100.679 21.5506 99.9136 20.972C99.1483 20.3933 98.467 19.6933 97.8696 18.872L100.25 16.184C101.164 17.4533 102.06 18.3306 102.938 18.816C103.815 19.3013 104.804 19.544 105.906 19.544C106.54 19.544 107.119 19.4506 107.642 19.264C108.164 19.0586 108.575 18.788 108.874 18.452C109.172 18.0973 109.322 17.696 109.322 17.248C109.322 16.9306 109.256 16.6413 109.126 16.38C109.014 16.1 108.836 15.8573 108.594 15.652C108.351 15.428 108.052 15.2226 107.698 15.036C107.343 14.8493 106.942 14.6906 106.494 14.56C106.046 14.4293 105.551 14.308 105.01 14.196C103.983 13.9906 103.087 13.72 102.322 13.384C101.556 13.0293 100.912 12.6 100.39 12.096C99.867 11.5733 99.4843 10.9946 99.2416 10.36C98.999 9.70664 98.8776 8.96931 98.8776 8.14798C98.8776 7.32664 99.055 6.57064 99.4096 5.87998C99.783 5.18931 100.287 4.59198 100.922 4.08798C101.556 3.58398 102.294 3.19198 103.134 2.91198C103.974 2.63198 104.879 2.49198 105.85 2.49198C106.951 2.49198 107.931 2.62264 108.79 2.88398C109.667 3.14531 110.432 3.53731 111.086 4.05998C111.758 4.56398 112.308 5.17998 112.738 5.90798L110.33 8.28798C109.956 7.70931 109.536 7.23331 109.07 6.85998C108.603 6.46798 108.099 6.17864 107.558 5.99198C107.016 5.78664 106.447 5.68398 105.85 5.68398C105.178 5.68398 104.59 5.77731 104.086 5.96398C103.6 6.15065 103.218 6.42131 102.938 6.77598C102.658 7.11198 102.518 7.52264 102.518 8.00798C102.518 8.38131 102.602 8.71731 102.77 9.01598C102.938 9.29598 103.171 9.54798 103.47 9.77198C103.787 9.99598 104.188 10.192 104.674 10.36C105.159 10.528 105.71 10.6773 106.326 10.808C107.352 11.0133 108.276 11.2933 109.098 11.648C109.919 11.984 110.619 12.3946 111.198 12.88C111.776 13.3466 112.215 13.888 112.514 14.504C112.812 15.1013 112.962 15.7733 112.962 16.52C112.962 17.808 112.654 18.9186 112.038 19.852C111.44 20.7666 110.591 21.476 109.49 21.98C108.388 22.4653 107.1 22.708 105.626 22.708ZM117.944 22.428V3.91998H121.388V22.428H117.944ZM115.032 10.864V7.67198H124.608V10.864H115.032ZM133.842 22.708C132.368 22.708 131.052 22.3813 129.894 21.728C128.737 21.056 127.822 20.1413 127.15 18.984C126.478 17.8266 126.142 16.5106 126.142 15.036C126.142 13.5613 126.478 12.2453 127.15 11.088C127.822 9.93064 128.737 9.02531 129.894 8.37198C131.052 7.69998 132.368 7.36398 133.842 7.36398C135.298 7.36398 136.605 7.69998 137.762 8.37198C138.92 9.02531 139.825 9.93064 140.478 11.088C141.15 12.2453 141.486 13.5613 141.486 15.036C141.486 16.5106 141.15 17.8266 140.478 18.984C139.825 20.1413 138.92 21.056 137.762 21.728C136.605 22.3813 135.298 22.708 133.842 22.708ZM133.842 19.656C134.645 19.656 135.354 19.4506 135.97 19.04C136.605 18.6293 137.1 18.0786 137.454 17.388C137.828 16.6973 138.005 15.9133 137.986 15.036C138.005 14.14 137.828 13.3466 137.454 12.656C137.1 11.9653 136.605 11.424 135.97 11.032C135.354 10.6213 134.645 10.416 133.842 10.416C133.04 10.416 132.312 10.6213 131.658 11.032C131.024 11.424 130.529 11.9746 130.174 12.684C129.82 13.3746 129.642 14.1586 129.642 15.036C129.642 15.9133 129.82 16.6973 130.174 17.388C130.529 18.0786 131.024 18.6293 131.658 19.04C132.312 19.4506 133.04 19.656 133.842 19.656ZM144.567 22.428V7.67198H147.955L148.011 12.376L147.535 11.312C147.74 10.5653 148.095 9.89331 148.599 9.29598C149.103 8.69864 149.682 8.23198 150.335 7.89598C151.007 7.54131 151.707 7.36398 152.435 7.36398C152.752 7.36398 153.051 7.39198 153.331 7.44798C153.63 7.50398 153.872 7.56931 154.059 7.64398L153.135 11.424C152.93 11.312 152.678 11.2186 152.379 11.144C152.08 11.0693 151.782 11.032 151.483 11.032C151.016 11.032 150.568 11.1253 150.139 11.312C149.728 11.48 149.364 11.7226 149.047 12.04C148.73 12.3573 148.478 12.7306 148.291 13.16C148.123 13.5706 148.039 14.0373 148.039 14.56V22.428H144.567ZM162.639 22.708C161.09 22.708 159.718 22.3813 158.523 21.728C157.347 21.0746 156.423 20.188 155.751 19.068C155.098 17.9293 154.771 16.632 154.771 15.176C154.771 14.0186 154.958 12.964 155.331 12.012C155.705 11.06 156.218 10.2386 156.871 9.54798C157.543 8.83864 158.337 8.29731 159.251 7.92398C160.185 7.53198 161.202 7.33598 162.303 7.33598C163.274 7.33598 164.179 7.52264 165.019 7.89598C165.859 8.26931 166.587 8.78264 167.203 9.43598C167.819 10.0706 168.286 10.836 168.603 11.732C168.939 12.6093 169.098 13.5706 169.079 14.616L169.051 15.82H157.095L156.451 13.468H166.167L165.719 13.944V13.328C165.663 12.7493 165.477 12.2453 165.159 11.816C164.842 11.368 164.431 11.0226 163.927 10.78C163.442 10.5186 162.901 10.388 162.303 10.388C161.389 10.388 160.614 10.5653 159.979 10.92C159.363 11.2746 158.897 11.788 158.579 12.46C158.262 13.1133 158.103 13.9346 158.103 14.924C158.103 15.876 158.299 16.7066 158.691 17.416C159.102 18.1253 159.671 18.676 160.399 19.068C161.146 19.4413 162.014 19.628 163.003 19.628C163.694 19.628 164.329 19.516 164.907 19.292C165.486 19.068 166.111 18.6666 166.783 18.088L168.491 20.468C167.987 20.9346 167.409 21.336 166.755 21.672C166.121 21.9893 165.449 22.2413 164.739 22.428C164.03 22.6146 163.33 22.708 162.639 22.708Z" fill="#F5F4F9"/>
</svg>
